<svg width="210" height="374" viewBox="0 0 210 374" fill="none" xmlns="http://www.w3.org/2000/svg">
<path d="M0 185.476C0 160.476 4.76382 136.667 14.2915 114.286C23.8192 91.9047 36.9199 72.3808 53.5934 55.4761C70.2669 38.5713 89.5605 25.238 111.712 15.476C133.864 5.71414 157.445 0.714286 182.456 0C190.554 0 197.224 2.38079 201.988 6.9046C206.751 11.4284 209.371 17.1429 209.371 23.8095C209.371 30.4762 206.99 36.1905 201.988 40.7143C196.985 45.2381 190.554 47.6191 182.456 47.6191C163.877 48.0952 146.489 52.1429 130.053 59.5238C113.618 66.9048 99.3264 76.9047 86.9404 89.0476C74.5544 101.429 65.0267 115.952 58.1191 132.619C51.2115 149.286 47.6385 166.905 47.6385 185.238V349.762C47.6385 356.429 45.2566 362.143 40.7309 366.667C36.2053 371.191 30.4887 373.571 23.8193 373.571C17.1499 373.571 11.4333 371.191 6.90761 366.667C2.38195 362.143 0 356.429 0 349.762V185.238V185.476Z" fill="#FFFFFF"/>
</svg>
